<svg xmlns="http://www.w3.org/2000/svg" viewBox="0 0 218.5 72.75">
    <defs>
        <style>.cls-1{fill:#ea580c;}.cls-2{font-size:34.44px;fill:#ff5716;}.cls-2,.cls-3{font-family:  Roboto , Rockwell-ExtraBold, Rockwell Extra Bold;font-weight:800;}.cls-3{font-size:27.54px;fill:#ff550b;letter-spacing:-0.13em;}.cls-4{letter-spacing:0em;}</style>
    </defs>
    <g id="Layer_2" data-name="Layer 2">
        <g id="Layer_1-2" data-name="Layer 1">
            <rect class="cls-1" width="75.94" height="72.75" />
            <path d="M61.71,13.22A32.75,32.75,0,0,0,15.4,59.53,32.75,32.75,0,0,0,61.71,13.22Zm-22.56-3H38c.2,0,.39,0,.59,0S39,10.18,39.15,10.18ZM59,52.75H51.65L47.53,61a25.85,25.85,0,0,1-18,0l-4.11-8.21H18.14a26.06,26.06,0,0,1-5.32-11.56l6.09-8.12-4-8A26,26,0,0,1,20,17.85,26.27,26.27,0,0,1,30.57,11.4l8,5.33,8-5.32A26.05,26.05,0,0,1,62.18,25.12l-4,8,6.09,8.12A26.06,26.06,0,0,1,59,52.75Z" />
            <path d="M27.09,33.1,32,46.2H45.1L50,33.1,38.55,24.92Z" />
            <text class="cls-2" transform="translate(86.5 29.86)">All</text>
            <text class="cls-3" transform="translate(83.84 64.86)">
                F
                <tspan class="cls-4" x="15.92" y="0">ootball</tspan>
            </text>
        </g>
    </g>
</svg>